<svg xmlns="http://www.w3.org/2000/svg" width="32" height="32" fill="none"><g clip-path="url(#a)"><circle cx="16" cy="16" r="16" fill="#fff"/><path fill="url(#b)" d="M23 14h-.82l-1.7-4.68A2.008 2.008 0 0 0 18.6 8H17c-.55 0-1 .45-1 1s.45 1 1 1h1.6l1.46 4h-4.81l-.36-1h.09c.55 0 1-.45 1-1s-.45-1-1-1H12c-.55 0-1 .45-1 1s.45 1 1 1h.75l1.82 5h-.67c-.44-2.23-2.31-3.88-4.65-3.99C6.45 13.87 4 16.2 4 19c0 2.8 2.2 5 5 5 2.46 0 4.45-1.69 4.9-4h4.2c.44 2.23 2.31 3.88 4.65 3.99 2.8.13 5.25-2.19 5.25-5C28 16.2 25.8 14 23 14Zm-13 6h1.82c-.42 1.23-1.6 2.08-3.02 1.99-1.49-.09-2.73-1.35-2.8-2.85C5.93 17.39 7.27 16 9 16c1.33 0 2.42.83 2.82 2H10c-.55 0-1 .45-1 1s.45 1 1 1Zm8.1-2h-1.4l-.73-2H19c-.44.58-.76 1.25-.9 2Zm4.78 4c-1.54-.06-2.84-1.37-2.88-2.92-.02-.96.39-1.8 1.05-2.36l.62 1.7c.19.52.76.79 1.28.6.52-.19.79-.76.6-1.28l-.63-1.73.01-.01A2.969 2.969 0 0 1 26 19c0 1.72-1.38 3.06-3.12 3Z"/></g><defs><linearGradient id="b" x1="16" x2="16" y1="8" y2="24" gradientUnits="userSpaceOnUse"><stop stop-color="#FFB60D"/><stop offset="1" stop-color="#E59317"/></linearGradient><clipPath id="a"><path fill="#fff" d="M0 0h32v32H0z"/></clipPath></defs></svg>